:version 1.10
:name ASF
:units
  mass 1
  length 1
  angle deg
:documentation
  ASF file generated by Kaydara
:root
  axis xyz
  order  tx ty tz rx ry rz
  position 0 0 0
  orientation 0 0 0
:bonedata
  begin
    id 1
    name SpineDummy
    direction 0.999998 -0.00179978 1.38929e-006
    length 3.60008
    axis 0 0 0 xyz
  end
  begin
    id 2
    name Spine
    direction 0.964365 0.262802 0.0305839
    length 8.13928
    axis 1.33928 -1.75354 15.2838 xyz
    dof rx ry rz
  end
  begin
    id 3
    name Spine1
    direction 0.811168 0.572065 0.12144
    length 7.14954
    axis 2.2224 -6.9761 35.2157 xyz
    dof rx ry rz
  end
  begin
    id 4
    name Neck
    direction 0 0 0
    length 0
    axis 2.2224 -6.9761 35.2157 xyz
    dof rx ry rz
  end
  begin
    id 5
    name HeadDummy
    direction 0.810939 0.572387 0.121455
    length 3.55534
    axis 2.2224 -6.9761 35.2157 xyz
  end
  begin
    id 6
    name Head
    direction 0.998226 -0.000232542 0.0595419
    length 7.35666
    axis -3.03688 -3.41352 -0.0133467 xyz
    dof rx ry rz
  end
  begin
    id 7
    name R_ClavicleDummy
    direction 0.531669 -0.194489 -0.824319
    length 2.49392
    axis 2.2224 -6.9761 35.2157 xyz
  end
  begin
    id 8
    name R_Clavicle
    direction -0.155119 0.0480802 -0.986725
    length 4.485
    axis -54.2764 80.6538 162.779 xyz
    dof rx ry rz
  end
  begin
    id 9
    name R_UpperArm
    direction -0.955567 0.200068 -0.216484
    length 10.1122
    axis -72.9943 12.5026 168.175 xyz
    dof rx ry rz
  end
  begin
    id 10
    name R_Forearm
    direction -0.61433 0.385743 0.688332
    length 9.39148
    axis -117.015 -43.4982 147.875 xyz
    dof rx ry rz
  end
  begin
    id 11
    name R_Hand
    direction -0.699429 0.0170333 0.714499
    length 3.66324
    axis -45.0303 -36.7097 175.478 xyz
    dof rx ry rz
  end
  begin
    id 12
    name L_ClavicleDummy
    direction 0.40287 -0.36502 0.839319
    length 2.49392
    axis 2.2224 -6.9761 35.2157 xyz
  end
  begin
    id 13
    name L_Clavicle
    direction -0.231271 -0.0726419 0.970174
    length 4.485
    axis 18.4357 -75.9711 -162.563 xyz
    dof rx ry rz
  end
  begin
    id 14
    name L_UpperArm
    direction -0.917494 0.144359 0.370629
    length 10.1122
    axis 56.0417 -21.7544 171.058 xyz
    dof rx ry rz
  end
  begin
    id 15
    name L_Forearm
    direction -0.496786 0.615074 -0.612281
    length 9.39148
    axis 89.8094 37.7546 128.927 xyz
    dof rx ry rz
  end
  begin
    id 16
    name L_Hand
    direction -0.409932 0.64962 -0.640274
    length 3.66324
    axis -0.424369 32.133 128.52 xyz
    dof rx ry rz
  end
  begin
    id 17
    name L_ThighDummy
    direction -1.84081e-006 1.87549e-006 1
    length 3.13049
    axis 0 0 0 xyz
  end
  begin
    id 18
    name L_Thigh
    direction -0.947739 0.307978 0.083308
    length 17.9961
    axis 173.219 -4.77873 161.998 xyz
    dof rx ry rz
  end
  begin
    id 19
    name L_Calf
    direction -0.728814 -0.684427 0.0197583
    length 13.3367
    axis 167.331 -1.13214 -136.799 xyz
    dof rx ry rz
  end
  begin
    id 20
    name L_Foot
    direction -0.9028 0.418719 0.0981191
    length 5.8674
    axis 163.436 11.5135 -155.37 xyz
    dof rx ry rz
  end
  begin
    id 21
    name L_Toe0
    direction -0.35341 0.886259 0.299411
    length 4.75286
    axis 169.316 -17.4222 111.74 xyz
    dof rx ry rz
  end
  begin
    id 22
    name R_ThighDummy
    direction 9.32778e-007 -8.82053e-007 -1
    length 3.13049
    axis 0 0 0 xyz
  end
  begin
    id 23
    name R_Thigh
    direction -0.925064 0.37528 -0.0585023
    length 17.9961
    axis -178.698 3.35385 157.919 xyz
    dof rx ry rz
  end
  begin
    id 24
    name R_Calf
    direction -0.68969 -0.718776 -0.0876886
    length 13.3367
    axis -160.504 5.03065 -133.817 xyz
    dof rx ry rz
  end
  begin
    id 25
    name R_Foot
    direction -0.857405 0.418858 -0.299022
    length 5.8674
    axis -161.328 4.38911 -154.413 xyz
    dof rx ry rz
  end
  begin
    id 26
    name R_Toe0
    direction -0.100745 0.952789 -0.286433
    length 4.75286
    axis 171.683 16.6445 96.0359 xyz
    dof rx ry rz
  end
:hierarchy
  begin
    root SpineDummy L_ThighDummy R_ThighDummy
    SpineDummy Spine
    Spine Spine1
    Spine1 Neck
    Neck HeadDummy R_ClavicleDummy L_ClavicleDummy
    HeadDummy Head
    R_ClavicleDummy R_Clavicle
    R_Clavicle R_UpperArm
    R_UpperArm R_Forearm
    R_Forearm R_Hand
    L_ClavicleDummy L_Clavicle
    L_Clavicle L_UpperArm
    L_UpperArm L_Forearm
    L_Forearm L_Hand
    L_ThighDummy L_Thigh
    L_Thigh L_Calf
    L_Calf L_Foot
    L_Foot L_Toe0
    R_ThighDummy R_Thigh
    R_Thigh R_Calf
    R_Calf R_Foot
    R_Foot R_Toe0
  end

:SAMPLES-PER-SECOND 30
:FULLY-SPECIFIED
:DEGREES
276
root  0.293704 32.2766 -64.3811 -94.541 -7.77784 96.191
Spine  2.29954 9.67576 -12.861
Spine1  2.45666 6.42391 3.08985
Neck  3.97569e-016 0 -2.38542e-015
Head  7.09308 -3.48737 15.51
R_Clavicle  0.422283 -17.9506 2.14235
R_UpperArm  17.2048 6.6723 33.2196
R_Forearm  17.1515 -23.0817 20.2711
R_Hand  -0.669857 4.59197 -14.9721
L_Clavicle  -0.497819 17.3662 -0.413414
L_UpperArm  -21.9523 20.4689 37.3205
L_Forearm  -6.02791 26.5251 35.0196
L_Hand  -0.0723296 3.63818 -0.757772
L_Thigh  -1.80668 12.1415 3.77031
L_Calf  8.71841 -3.51987 37.4704
L_Foot  0.34735 5.55935 -4.12409
L_Toe0  0.505156 0.0343728 -6.1361
R_Thigh  5.37128 3.56023 -23.6763
R_Calf  -1.10887 11.6525 31.6888
R_Foot  -0.0194541 2.1856 6.78983
R_Toe0  -1.78981 -0.272788 -17.3235
277
root  0.0471896 31.8355 -65.2269 -91.9832 -8.30669 96.8951
Spine  2.00443 10.7844 -10.9887
Spine1  1.73511 5.37886 2.64488
Neck  3.97569e-016 0 -2.38542e-015
Head  6.17039 -3.78115 12.7173
R_Clavicle  0.432347 -18.4704 2.43033
R_UpperArm  21.5807 7.11401 38.475
R_Forearm  18.1345 -22.9247 20.2198
R_Hand  -0.69216 4.42035 -15.1096
L_Clavicle  -0.491827 17.8408 0.8944
L_UpperArm  -23.7325 17.0328 36.7382
L_Forearm  -6.24347 26.858 35.3689
L_Hand  -0.0531764 3.68823 -0.509263
L_Thigh  -0.760228 10.971 6.83289
L_Calf  11.0598 -2.1935 35.2197
L_Foot  -0.453008 6.28157 -7.81456
L_Toe0  0.505156 0.0342183 -6.1361
R_Thigh  8.02817 3.75938 -25.0234
R_Calf  -2.26494 10.2742 29.3199
R_Foot  0.325304 3.86442 9.88075
R_Toe0  -1.78915 -0.272801 -17.3239
278
root  -0.349004 31.2583 -65.9896 -89.1021 -9.26065 96.3166
Spine  1.71864 9.33139 -8.30064
Spine1  1.19509 6.43606 2.95326
Neck  3.97569e-016 0 -2.38542e-015
Head  5.69574 -4.227 9.10599
R_Clavicle  0.434529 -18.7954 2.52648
R_UpperArm  26.5129 8.43848 43.4147
R_Forearm  21.2905 -23.3825 20.4411
R_Hand  -0.793431 4.13053 -16.0021
L_Clavicle  -0.479305 18.404 1.95886
L_UpperArm  -26.3292 13.0567 33.467
L_Forearm  -5.73926 29.2783 38.1426
L_Hand  -0.0851459 3.00022 -1.00181
L_Thigh  2.83792 8.04913 8.77499
L_Calf  9.48581 -1.57421 29.8455
L_Foot  -1.94188 8.00125 -14.7557
L_Toe0  0.505156 0.0339908 -6.1361
R_Thigh  10.8026 2.9983 -26.1294
R_Calf  -2.67202 7.77378 25.8292
R_Foot  1.1711 6.56675 13.8889
R_Toe0  -1.82177 -0.278779 -17.6593
279
root  -0.856245 30.5815 -66.7159 -87.2226 -9.87407 94.1802
Spine  1.69484 4.82962 -5.89421
Spine1  1.43572 9.04005 4.05017
Neck  3.97569e-016 0 -2.38542e-015
Head  5.27635 -3.74196 6.09858
R_Clavicle  0.427762 -18.4755 2.29495
R_UpperArm  33.3085 9.50914 47.0474
R_Forearm  24.2548 -24.8034 21.053
R_Hand  -0.833664 3.18308 -16.0189
L_Clavicle  -0.478957 17.7142 1.58458
L_UpperArm  -30.7995 10.6318 29.4272
L_Forearm  -5.04946 32.2943 42.1306
L_Hand  -0.0856672 2.11197 -1.17682
L_Thigh  7.31929 4.55655 10.7169
L_Calf  6.68863 -2.89267 20.8674
L_Foot  -1.17152 9.20338 -12.4285
L_Toe0  0.505156 0.0337018 -6.1361
R_Thigh  9.4972 0.47972 -25.2747
R_Calf  -0.499842 5.818 18.4389
R_Foot  2.84101 10.6617 16.1707
R_Toe0  -1.63083 -0.159112 -14.6713
280
root  -1.42124 29.9552 -67.3806 -87.2086 -10.0389 90.5264
Spine  1.54679 -1.10031 -3.93874
Spine1  1.94197 10.3088 5.3065
Neck  3.97569e-016 0 -2.38542e-015
Head  5.46489 -2.30853 4.53568
R_Clavicle  0.41581 -17.19 2.0041
R_UpperArm  40.5269 9.27076 48.4295
R_Forearm  25.7865 -25.4782 21.4698
R_Hand  -0.759454 1.8804 -14.2995
L_Clavicle  -0.454834 16.0904 0.179205
L_UpperArm  -33.4167 8.89586 27.3432
L_Forearm  -7.30101 33.9276 45.6647
L_Hand  -0.053212 1.93811 -0.707929
L_Thigh  1.71773 1.55683 11.725
L_Calf  9.74719 -1.79768 13.9194
L_Foot  0.662113 11.1439 -6.97925
L_Toe0  0.505156 0.0333626 -6.13611
R_Thigh  7.0722 -4.95467 -18.6985
R_Calf  -2.54534 0.804866 2.6285
R_Foot  4.1658 13.5573 8.75892
R_Toe0  0.942598 -0.477025 0.980653
